<mxfile host="Electron" agent="Mozilla/5.0 (X11; Linux x86_64) AppleWebKit/537.36 (KHTML, like Gecko) draw.io/24.7.5 Chrome/126.0.6478.183 Electron/31.3.0 Safari/537.36" version="24.7.5">
  <diagram name="Page-1" id="z-X7BhkLdW4uT2gJd32Z">
    <mxGraphModel dx="1399" dy="826" grid="1" gridSize="10" guides="1" tooltips="1" connect="1" arrows="1" fold="1" page="1" pageScale="1" pageWidth="850" pageHeight="1100" math="0" shadow="0">
      <root>
        <mxCell id="0" />
        <mxCell id="1" parent="0" />
        <mxCell id="WdNqoiS1CCSMNCmxVdOk-20" value="" style="rounded=1;whiteSpace=wrap;html=1;fillColor=#f8cecc;strokeColor=#b85450;dashed=1;strokeWidth=2;arcSize=8;" parent="1" vertex="1">
          <mxGeometry x="570" y="40" width="370" height="200" as="geometry" />
        </mxCell>
        <mxCell id="WdNqoiS1CCSMNCmxVdOk-13" value="" style="rounded=1;whiteSpace=wrap;html=1;fillColor=#dae8fc;strokeColor=#6c8ebf;dashed=1;strokeWidth=2;arcSize=8;" parent="1" vertex="1">
          <mxGeometry x="40" y="40" width="510" height="200" as="geometry" />
        </mxCell>
        <mxCell id="WdNqoiS1CCSMNCmxVdOk-18" style="edgeStyle=orthogonalEdgeStyle;rounded=0;orthogonalLoop=1;jettySize=auto;html=1;strokeWidth=2;" parent="1" source="WdNqoiS1CCSMNCmxVdOk-8" target="jc037fZf6ir3ZMq00mN3-1" edge="1">
          <mxGeometry relative="1" as="geometry" />
        </mxCell>
        <mxCell id="WdNqoiS1CCSMNCmxVdOk-22" value="Commits/&lt;br&gt;Pull Requests" style="edgeLabel;html=1;align=center;verticalAlign=middle;resizable=0;points=[];" parent="WdNqoiS1CCSMNCmxVdOk-18" vertex="1" connectable="0">
          <mxGeometry x="-0.0852" y="-3" relative="1" as="geometry">
            <mxPoint y="-3" as="offset" />
          </mxGeometry>
        </mxCell>
        <mxCell id="WdNqoiS1CCSMNCmxVdOk-8" value="Gitea Repository" style="shape=image;verticalLabelPosition=bottom;labelBackgroundColor=default;verticalAlign=top;aspect=fixed;imageAspect=0;image=https://upload.wikimedia.org/wikipedia/commons/thumb/b/bb/Gitea_Logo.svg/1200px-Gitea_Logo.svg.png;fontStyle=0" parent="1" vertex="1">
          <mxGeometry x="90" y="105" width="81.08" height="50" as="geometry" />
        </mxCell>
        <mxCell id="WdNqoiS1CCSMNCmxVdOk-11" value="" style="group" parent="1" vertex="1" connectable="0">
          <mxGeometry x="740" y="100" width="161.67000000000002" height="70" as="geometry" />
        </mxCell>
        <mxCell id="WdNqoiS1CCSMNCmxVdOk-10" value="&lt;span style=&quot;background-color: rgb(255, 255, 255);&quot;&gt;VPS hosting&lt;br&gt;Single-Node Kubernetes&lt;/span&gt;" style="verticalLabelPosition=bottom;sketch=0;aspect=fixed;html=1;verticalAlign=top;strokeColor=none;align=center;outlineConnect=0;shape=mxgraph.citrix.1u_2u_server;" parent="WdNqoiS1CCSMNCmxVdOk-11" vertex="1">
          <mxGeometry width="153.46" height="60" as="geometry" />
        </mxCell>
        <mxCell id="WdNqoiS1CCSMNCmxVdOk-9" value="" style="aspect=fixed;sketch=0;html=1;dashed=0;whitespace=wrap;verticalLabelPosition=bottom;verticalAlign=top;fillColor=#2875E2;strokeColor=#ffffff;points=[[0.005,0.63,0],[0.1,0.2,0],[0.9,0.2,0],[0.5,0,0],[0.995,0.63,0],[0.72,0.99,0],[0.5,1,0],[0.28,0.99,0]];shape=mxgraph.kubernetes.icon2;prIcon=api" parent="WdNqoiS1CCSMNCmxVdOk-11" vertex="1">
          <mxGeometry x="120" y="30" width="41.67" height="40" as="geometry" />
        </mxCell>
        <mxCell id="WdNqoiS1CCSMNCmxVdOk-21" style="edgeStyle=orthogonalEdgeStyle;rounded=0;orthogonalLoop=1;jettySize=auto;html=1;strokeWidth=2;" parent="1" source="WdNqoiS1CCSMNCmxVdOk-12" target="WdNqoiS1CCSMNCmxVdOk-10" edge="1">
          <mxGeometry relative="1" as="geometry" />
        </mxCell>
        <mxCell id="WdNqoiS1CCSMNCmxVdOk-24" value="Build Image &amp;amp;&lt;br&gt;Deploy App" style="edgeLabel;html=1;align=center;verticalAlign=middle;resizable=0;points=[];" parent="WdNqoiS1CCSMNCmxVdOk-21" vertex="1" connectable="0">
          <mxGeometry x="-0.1667" y="2" relative="1" as="geometry">
            <mxPoint x="12" y="2" as="offset" />
          </mxGeometry>
        </mxCell>
        <mxCell id="WdNqoiS1CCSMNCmxVdOk-12" value="Home &lt;br&gt;Firewall/Router" style="image;html=1;image=img/lib/clip_art/networking/Firewall_02_128x128.png;fontStyle=0" parent="1" vertex="1">
          <mxGeometry x="520" y="90" width="80" height="80" as="geometry" />
        </mxCell>
        <mxCell id="WdNqoiS1CCSMNCmxVdOk-15" value="Home Network" style="rounded=0;whiteSpace=wrap;html=1;fillColor=#dae8fc;strokeColor=#6c8ebf;" parent="1" vertex="1">
          <mxGeometry x="30" y="30" width="100" height="30" as="geometry" />
        </mxCell>
        <mxCell id="WdNqoiS1CCSMNCmxVdOk-17" value="Public Network" style="rounded=0;whiteSpace=wrap;html=1;fillColor=#f8cecc;strokeColor=#b85450;" parent="1" vertex="1">
          <mxGeometry x="560" y="30" width="100" height="30" as="geometry" />
        </mxCell>
        <mxCell id="WdNqoiS1CCSMNCmxVdOk-19" style="edgeStyle=orthogonalEdgeStyle;rounded=0;orthogonalLoop=1;jettySize=auto;html=1;strokeWidth=2;" parent="1" source="jc037fZf6ir3ZMq00mN3-1" target="WdNqoiS1CCSMNCmxVdOk-12" edge="1">
          <mxGeometry relative="1" as="geometry" />
        </mxCell>
        <mxCell id="WdNqoiS1CCSMNCmxVdOk-23" value="Build Image &amp;amp;&lt;br&gt;Deploy App" style="edgeLabel;html=1;align=center;verticalAlign=middle;resizable=0;points=[];" parent="WdNqoiS1CCSMNCmxVdOk-19" vertex="1" connectable="0">
          <mxGeometry x="-0.0133" y="5" relative="1" as="geometry">
            <mxPoint y="5" as="offset" />
          </mxGeometry>
        </mxCell>
        <mxCell id="WdNqoiS1CCSMNCmxVdOk-25" value="Commit to dev branch" style="rounded=0;whiteSpace=wrap;html=1;fillColor=#e1d5e7;strokeColor=#9673a6;fontStyle=1" parent="1" vertex="1">
          <mxGeometry x="50" y="250" width="180" height="30" as="geometry" />
        </mxCell>
        <mxCell id="WdNqoiS1CCSMNCmxVdOk-26" value="Automatically runs Test&amp;nbsp;pipeline to build https://new.adambrodack.com/ site (not accessible to public)." style="rounded=0;whiteSpace=wrap;html=1;fillColor=#e1d5e7;strokeColor=#9673a6;" parent="1" vertex="1">
          <mxGeometry x="230" y="250" width="560" height="30" as="geometry" />
        </mxCell>
        <mxCell id="WdNqoiS1CCSMNCmxVdOk-27" value="Pull Request to master branch" style="rounded=0;whiteSpace=wrap;html=1;fillColor=#e1d5e7;strokeColor=#9673a6;fontStyle=1" parent="1" vertex="1">
          <mxGeometry x="50" y="290" width="180" height="30" as="geometry" />
        </mxCell>
        <mxCell id="WdNqoiS1CCSMNCmxVdOk-28" value="Automatically runs Prod pipeline to build https://adambrodack.com/ site." style="rounded=0;whiteSpace=wrap;html=1;fillColor=#e1d5e7;strokeColor=#9673a6;" parent="1" vertex="1">
          <mxGeometry x="230" y="290" width="400" height="30" as="geometry" />
        </mxCell>
        <mxCell id="jc037fZf6ir3ZMq00mN3-1" value="Gitea &#xa;Actions (Runner)" style="shape=image;verticalLabelPosition=bottom;labelBackgroundColor=default;verticalAlign=top;aspect=fixed;imageAspect=0;image=https://upload.wikimedia.org/wikipedia/commons/thumb/b/bb/Gitea_Logo.svg/1200px-Gitea_Logo.svg.png;fontStyle=0" vertex="1" parent="1">
          <mxGeometry x="310" y="105" width="81.08" height="50" as="geometry" />
        </mxCell>
      </root>
    </mxGraphModel>
  </diagram>
</mxfile>
